# xmcd CD database file
#
# Track frame offsets:
#	150
#	17045
#	36328
#	56342
#	76261
#	92859
#	105405
#	123696
#	154463
#	191291
#	218163
#	238969
#
# Disc length: 3359 seconds
#
# Revision: 0
# Processed by: cddbd v1.5.1PL2 Copyright (c) Steve Scherf et al.
# Submitted via: CDex 1.51
#
DISCID=9f0d1d0c
DTITLE=Shannon - Ahogy lesz (2004)
DYEAR=2004
DGENRE=World
TTITLE0=Shannon - Ahogy lesz, úgy akarom
TTITLE1=Shannon - A bor, a dal, a tánc
TTITLE2=Shannon - Fogy a sör
TTITLE3=Shannon - Tûztánc
TTITLE4=Shannon - Az én városom
TTITLE5=Shannon - 9,11
TTITLE6=Shannon - A hetedik nap
TTITLE7=Shannon - Mindenszentek éjszakja
TTITLE8=Shannon - Hajnaltól hajnalig
TTITLE9=Shannon - Szépszavú vándor
TTITLE10=Shannon - Törpék álma
TTITLE11=Shannon - Jöjj, jöjj varázsló
EXTD=YEAR: 2004
EXTT0=
EXTT1=
EXTT2=
EXTT3=
EXTT4=
EXTT5=
EXTT6=
EXTT7=
EXTT8=
EXTT9=
EXTT10=
EXTT11=
PLAYORDER=
